<?xml version="1.0" encoding="utf-8"?>
<!-- Generator: Adobe Illustrator 27.5.0, SVG Export Plug-In . SVG Version: 6.00 Build 0)  -->
<svg version="1.1" xmlns="http://www.w3.org/2000/svg" xmlns:xlink="http://www.w3.org/1999/xlink" x="0px" y="0px"
	 viewBox="0 0 3710 3710" style="enable-background:new 0 0 3710 3710;" xml:space="preserve">
<g id="Background">
	<g>
		<g>
			<rect style="fill:#FFFFFF;" width="3710" height="3710"/>
		</g>
	</g>
</g>
<g id="Illustration">
	<g>
		<linearGradient id="SVGID_1_" gradientUnits="userSpaceOnUse" x1="3586.5342" y1="4056.9236" x2="1108.3579" y2="979.1841">
			<stop  offset="0" style="stop-color:#DAE3FE"/>
			<stop  offset="1" style="stop-color:#E9EFFD"/>
		</linearGradient>
		<path style="fill:url(#SVGID_1_);" d="M2904.772,2843.174c-56.923,59.926-110.782,98.571-153.336,129.104
			c-500.208,358.905-1092.088,254.286-1217.879,228.737c-185.754-37.728-544.812-110.654-804.405-415.93
			C336.41,2323.229,397.566,1595.586,702.203,1115.26c55.723-87.86,350.068-575.503,948.322-653.706
			c362.057-47.327,784.099,48.126,1089.731,304.185C3381.803,1303.228,3336.132,2389.052,2904.772,2843.174z"/>
		<g>
			<g>
				<path style="fill:#7D97F4;" d="M2402.872,1509.958h798.785l-56.246,1306.165c-1.499,34.803-30.15,62.246-64.985,62.246h-703.744
					L2402.872,1509.958z"/>
				<polygon style="fill:#BDD0FB;" points="2393.851,1981.373 3181.358,1981.373 3196.019,1640.907 2400.366,1640.907 				"/>
				
					<linearGradient id="SVGID_00000127747171875743540120000000862587204201567657_" gradientUnits="userSpaceOnUse" x1="3034.6396" y1="535.7822" x2="2888.4541" y2="1095.3193">
					<stop  offset="0" style="stop-color:#09005D"/>
					<stop  offset="1" style="stop-color:#1A0F91"/>
				</linearGradient>
				<path style="fill:url(#SVGID_00000127747171875743540120000000862587204201567657_);" d="M3209.762,1536.149h-865.817v-98.212
					h852.404c10.853,0,20.349,7.296,23.146,17.782l13.414,50.301C3236.965,1521.229,3225.502,1536.149,3209.762,1536.149z"/>
				<rect x="2546.916" y="1640.907" style="fill:#7D97F4;" width="32.737" height="340.466"/>
				<rect x="2795.718" y="1640.907" style="fill:#7D97F4;" width="32.737" height="340.466"/>
				<polygon style="fill:#7D97F4;" points="3037.972,1981.373 3005.235,1981.373 3024.878,1640.907 3057.615,1640.907 				"/>
				<g>
					<path style="fill:#91B3FA;" d="M2676.44,2465.882H2574.53c-4.402,0-7.971-3.569-7.971-7.971v-317.976
						c0-4.403,3.569-7.971,7.971-7.971h101.911c4.403,0,7.971,3.569,7.971,7.971v317.976
						C2684.412,2462.313,2680.843,2465.882,2676.44,2465.882z"/>
				</g>
				<g>
					<path style="fill:#91B3FA;" d="M2963.579,2465.882h-113.11c-1.31,0-2.372-1.062-2.372-2.372v-329.175
						c0-1.31,1.062-2.372,2.372-2.372h113.11c1.31,0,2.372,1.062,2.372,2.372v329.175
						C2965.951,2464.821,2964.889,2465.882,2963.579,2465.882z"/>
				</g>
			</g>
			
				<linearGradient id="SVGID_00000158727182490517781190000012180881748892325805_" gradientUnits="userSpaceOnUse" x1="497.5723" y1="1909.3514" x2="2507.6311" y2="1909.3514">
				<stop  offset="0" style="stop-color:#4F52FF"/>
				<stop  offset="1" style="stop-color:#4042E2"/>
			</linearGradient>
			<polygon style="fill:url(#SVGID_00000158727182490517781190000012180881748892325805_);" points="497.572,940.333 
				607.07,2878.37 2429.062,2878.37 2507.631,940.333 			"/>
			
				<linearGradient id="SVGID_00000054983319211490921770000003237580340624097437_" gradientUnits="userSpaceOnUse" x1="1896.4121" y1="-142.0951" x2="1669.5732" y2="467.8498">
				<stop  offset="0" style="stop-color:#09005D"/>
				<stop  offset="1" style="stop-color:#1A0F91"/>
			</linearGradient>
			<path style="fill:url(#SVGID_00000054983319211490921770000003237580340624097437_);" d="M2514.552,979.617H487.971
				c-9.86,0-18.567-6.431-21.467-15.855l-12.368-40.196c-4.444-14.443,6.356-29.065,21.467-29.065h2045.133
				c13.765,0,24.292,12.27,22.199,25.875l-6.184,40.196C2535.065,971.529,2525.638,979.617,2514.552,979.617z"/>
			<polygon style="fill:#91B3FA;" points="2490.113,1372.463 2501.261,1097.471 506.45,1097.471 521.987,1372.463 			"/>
			
				<linearGradient id="SVGID_00000115501146530594563470000005291468466652690856_" gradientUnits="userSpaceOnUse" x1="726.732" y1="1234.9668" x2="772.5641" y2="1234.9668">
				<stop  offset="0" style="stop-color:#4F52FF"/>
				<stop  offset="1" style="stop-color:#4042E2"/>
			</linearGradient>
			
				<rect x="726.732" y="1097.471" style="fill:url(#SVGID_00000115501146530594563470000005291468466652690856_);" width="45.832" height="274.992"/>
			
				<linearGradient id="SVGID_00000146484734731993921330000004382927409275839154_" gradientUnits="userSpaceOnUse" x1="1041.0084" y1="1234.9668" x2="1086.8401" y2="1234.9668">
				<stop  offset="0" style="stop-color:#4F52FF"/>
				<stop  offset="1" style="stop-color:#4042E2"/>
			</linearGradient>
			
				<rect x="1041.008" y="1097.471" style="fill:url(#SVGID_00000146484734731993921330000004382927409275839154_);" width="45.832" height="274.992"/>
			
				<linearGradient id="SVGID_00000008863101528309326230000009152286737081884351_" gradientUnits="userSpaceOnUse" x1="1355.2847" y1="1234.9668" x2="1401.1168" y2="1234.9668">
				<stop  offset="0" style="stop-color:#4F52FF"/>
				<stop  offset="1" style="stop-color:#4042E2"/>
			</linearGradient>
			
				<rect x="1355.285" y="1097.471" style="fill:url(#SVGID_00000008863101528309326230000009152286737081884351_);" width="45.832" height="274.992"/>
			
				<linearGradient id="SVGID_00000119117560658284831270000000948364830173696655_" gradientUnits="userSpaceOnUse" x1="1669.561" y1="1234.9668" x2="1715.3928" y2="1234.9668">
				<stop  offset="0" style="stop-color:#4F52FF"/>
				<stop  offset="1" style="stop-color:#4042E2"/>
			</linearGradient>
			
				<rect x="1669.561" y="1097.471" style="fill:url(#SVGID_00000119117560658284831270000000948364830173696655_);" width="45.832" height="274.992"/>
			
				<linearGradient id="SVGID_00000061473480244497829100000007325055993461413001_" gradientUnits="userSpaceOnUse" x1="1983.8373" y1="1234.9668" x2="2029.6696" y2="1234.9668">
				<stop  offset="0" style="stop-color:#4F52FF"/>
				<stop  offset="1" style="stop-color:#4042E2"/>
			</linearGradient>
			
				<rect x="1983.837" y="1097.471" style="fill:url(#SVGID_00000061473480244497829100000007325055993461413001_);" width="45.832" height="274.992"/>
			
				<linearGradient id="SVGID_00000174591088277805171990000003895498442153561229_" gradientUnits="userSpaceOnUse" x1="2298.1138" y1="1234.9668" x2="2343.9456" y2="1234.9668">
				<stop  offset="0" style="stop-color:#4F52FF"/>
				<stop  offset="1" style="stop-color:#4042E2"/>
			</linearGradient>
			
				<rect x="2298.114" y="1097.471" style="fill:url(#SVGID_00000174591088277805171990000003895498442153561229_);" width="45.832" height="274.992"/>
			<g>
				<rect x="746.375" y="1483.769" style="fill:#91B3FA;" width="471.757" height="202.97"/>
				<rect x="763.847" y="1503.411" style="fill:#BDD0FB;" width="436.812" height="170.233"/>
			</g>
			<g>
				<rect x="1261.813" y="1483.769" style="fill:#91B3FA;" width="471.757" height="202.97"/>
				<rect x="1279.285" y="1503.411" style="fill:#BDD0FB;" width="436.812" height="170.233"/>
			</g>
			<g>
				<rect x="1777.251" y="1483.769" style="fill:#91B3FA;" width="471.757" height="202.97"/>
				<rect x="1794.723" y="1503.411" style="fill:#BDD0FB;" width="436.812" height="170.233"/>
			</g>
			<rect x="844.585" y="2158.153" style="fill:#7D97F4;" width="890.45" height="766.049"/>
			
				<linearGradient id="SVGID_00000119085105280042815580000008888571336051876541_" gradientUnits="userSpaceOnUse" x1="791.5782" y1="3855.0813" x2="821.8387" y2="1756.9628">
				<stop  offset="0" style="stop-color:#4F52FF"/>
				<stop  offset="1" style="stop-color:#4042E2"/>
			</linearGradient>
			<path style="fill:url(#SVGID_00000119085105280042815580000008888571336051876541_);" d="M892.56,2924.202H741.405
				c-6.921,0-12.531-5.61-12.531-12.531v-779.708H892.56V2924.202z"/>
			
				<linearGradient id="SVGID_00000057125176231864302220000006593475288919234436_" gradientUnits="userSpaceOnUse" x1="1776.39" y1="1220.4526" x2="1660.4497" y2="1563.2317">
				<stop  offset="0" style="stop-color:#09005D"/>
				<stop  offset="1" style="stop-color:#1A0F91"/>
			</linearGradient>
			
				<rect x="1001.724" y="2393.861" style="fill:url(#SVGID_00000057125176231864302220000006593475288919234436_);" width="576.173" height="530.341"/>
			
				<linearGradient id="SVGID_00000132069902439206280990000008745974411263313071_" gradientUnits="userSpaceOnUse" x1="703.1803" y1="2348.3035" x2="2342.1904" y2="2348.3035">
				<stop  offset="0" style="stop-color:#4F52FF"/>
				<stop  offset="1" style="stop-color:#4042E2"/>
			</linearGradient>
			<path style="fill:url(#SVGID_00000132069902439206280990000008745974411263313071_);" d="M703.256,1817.989l23.476,399.091
				h916.639v707.122h597.089c32.211,0,58.682-25.422,59.984-57.607l41.709-1030.834c0.981-24.24-18.248-44.503-42.506-44.793
				l-1552.896-18.56C721.777,1772.109,701.789,1793.055,703.256,1817.989z"/>
			<polygon style="fill:#7D97F4;" points="719.029,2086.132 1735.035,2086.132 1735.035,1935.541 710.171,1935.541 			"/>
			
				<linearGradient id="SVGID_00000177479300581212266900000011515754962436745390_" gradientUnits="userSpaceOnUse" x1="907.8868" y1="1312.0741" x2="901.1652" y2="1580.9341">
				<stop  offset="0" style="stop-color:#53D8FF"/>
				<stop  offset="1" style="stop-color:#3840F7"/>
			</linearGradient>
			
				<rect x="870.775" y="1935.541" style="fill:url(#SVGID_00000177479300581212266900000011515754962436745390_);" width="39.285" height="150.591"/>
			
				<linearGradient id="SVGID_00000109742145779260135550000010599561970145703611_" gradientUnits="userSpaceOnUse" x1="1084.5565" y1="1316.4911" x2="1077.835" y2="1585.3512">
				<stop  offset="0" style="stop-color:#53D8FF"/>
				<stop  offset="1" style="stop-color:#3840F7"/>
			</linearGradient>
			
				<rect x="1047.556" y="1935.541" style="fill:url(#SVGID_00000109742145779260135550000010599561970145703611_);" width="39.285" height="150.591"/>
			
				<linearGradient id="SVGID_00000112599040491353055290000013404395304748589744_" gradientUnits="userSpaceOnUse" x1="2010.104" y1="839.7574" x2="1657.2435" y2="1379.1306">
				<stop  offset="0" style="stop-color:#53D8FF"/>
				<stop  offset="1" style="stop-color:#3840F7"/>
			</linearGradient>
			
				<rect x="1224.336" y="1935.541" style="fill:url(#SVGID_00000112599040491353055290000013404395304748589744_);" width="39.285" height="150.591"/>
			
				<linearGradient id="SVGID_00000128447611436883996990000012564238894281465987_" gradientUnits="userSpaceOnUse" x1="2133.9016" y1="920.7459" x2="1781.041" y2="1460.1191">
				<stop  offset="0" style="stop-color:#53D8FF"/>
				<stop  offset="1" style="stop-color:#3840F7"/>
			</linearGradient>
			
				<rect x="1401.117" y="1935.541" style="fill:url(#SVGID_00000128447611436883996990000012564238894281465987_);" width="39.285" height="150.591"/>
			
				<linearGradient id="SVGID_00000073706197759219391570000006300466624364267443_" gradientUnits="userSpaceOnUse" x1="1614.5669" y1="1329.741" x2="1607.8455" y2="1598.601">
				<stop  offset="0" style="stop-color:#53D8FF"/>
				<stop  offset="1" style="stop-color:#3840F7"/>
			</linearGradient>
			
				<rect x="1577.897" y="1935.541" style="fill:url(#SVGID_00000073706197759219391570000006300466624364267443_);" width="39.285" height="150.591"/>
		</g>
		<g>
			<g>
				<g>
					<path style="fill:#91B3FA;" d="M892.72,2113.23c14.307-37.142,23.592-75.568,23.196-116.565
						c-1-103.299-68.282-193.119-119.226-278.051c-46.821-78.061-86.478-196.786,50.43-196.891
						c109.072-0.083,245.136,97.737,268.685,209.207c27.868,131.93-23.581,305.224,63.049,420.16
						c121.191,160.789,195.727,115.757,218.596,401.62c9.771,122.147-52.496,194.936-127.023,238.246
						c-117.63,68.361-265.375,56.36-370.375-30.158c-92.762-76.434-153.536-192.118-145.842-313.756
						C761.98,2324.189,849.871,2224.464,892.72,2113.23z"/>
					<path style="fill:#7D97F4;" d="M1056.884,3027.039c2.778,0,5.229-2.005,5.702-4.835
						c45.921-274.68,63.114-521.738,51.103-734.311c-9.622-170.302-37.908-319.031-84.073-442.057
						C950.644,1635.376,848,1573.786,843.668,1571.268c-2.759-1.613-6.305-0.673-7.914,2.094c-1.606,2.76-0.671,6.299,2.088,7.909
						l0,0c1.031,0.605,104.075,62.798,181.494,270.127c71.609,191.77,135.259,550.23,31.831,1168.895
						c-0.528,3.155,1.602,6.138,4.754,6.665C1056.246,3027.012,1056.568,3027.037,1056.884,3027.039z"/>
				</g>
			</g>
			<g>
				<path style="fill:#7D97F4;" d="M491.141,2658.387c-19.5-83.106,3.35-182.135,11.494-272.321
					c4.306-47.683,4.303-94.662-7.042-141.447c-11.281-46.515-37.495-95.703-20.839-144.278
					c33.566-97.861,134.787-62.645,196.491,4.069c71.604,77.418,100.172,211,133.174,312.982
					c19.896,61.479,47.456,123.967,60.415,187.202c21.469,104.754,3.424,180.116-43.217,233.767
					c-44.734,51.46-117.872,67.239-179.898,38.92C585.688,2851.697,522.599,2792.455,491.141,2658.387z"/>
				<path style="fill:#91B3FA;" d="M745.799,3032.316c2.421,0,4.48-1.852,4.694-4.308c0.114-1.293,11.118-131.399-2.497-308.606
					c-12.572-163.622-49.303-402.104-152.9-609.04c-1.164-2.333-4.007-3.273-6.331-2.107c-2.33,1.166-3.275,4.001-2.107,6.331
					c102.884,205.512,139.399,442.628,151.916,605.355c13.575,176.48,2.633,305.96,2.521,307.247
					c-0.227,2.597,1.694,4.884,4.29,5.11C745.523,3032.31,745.661,3032.316,745.799,3032.316z"/>
			</g>
		</g>
		<g>
			<g>
				
					<linearGradient id="SVGID_00000016073713911370334160000003812797886776500629_" gradientUnits="userSpaceOnUse" x1="2605.5962" y1="2496.0479" x2="2527.1785" y2="2794.0347">
					<stop  offset="0" style="stop-color:#09005D"/>
					<stop  offset="1" style="stop-color:#1A0F91"/>
				</linearGradient>
				<polygon style="fill:url(#SVGID_00000016073713911370334160000003812797886776500629_);" points="1639.395,3094.844 
					3256.873,3093.963 3126.487,3019.079 1790.924,3019.079 				"/>
				<path style="fill:#91B3FA;" d="M1653.021,3149.464h1590.227c7.525,0,13.625-6.1,13.625-13.625v-40.996H1639.395v40.996
					C1639.395,3143.364,1645.495,3149.464,1653.021,3149.464z"/>
				
					<linearGradient id="SVGID_00000057866280412753180980000018369004146369496236_" gradientUnits="userSpaceOnUse" x1="2727.3389" y1="3256.9531" x2="2557.061" y2="2918.6377">
					<stop  offset="0" style="stop-color:#09005D"/>
					<stop  offset="1" style="stop-color:#1A0F91"/>
				</linearGradient>
				<path style="fill:url(#SVGID_00000057866280412753180980000018369004146369496236_);" d="M3101.812,3049.914
					c0.156,0,0.311-0.002,0.468-0.006c9.727-0.254,17.408-8.345,17.154-18.073l-16.401-629.195
					c-0.922-35.393-15.396-68.49-40.755-93.198c-25.359-24.707-58.824-38.313-94.229-38.313l-1051.816-5.286
					c-36.7,0-70.967,14.408-96.579,40.57c-25.611,26.162-39.287,60.729-38.509,97.332l13.307,625.401
					c0.204,9.601,8.052,17.244,17.608,17.244c0.128,0,0.254-0.001,0.382-0.004c9.729-0.207,17.448-8.262,17.24-17.99l-13.307-625.4
					c-0.576-27.051,9.532-52.596,28.46-71.931c18.927-19.334,44.252-29.982,71.309-29.982l1051.816,5.286
					c54.606,0,98.425,42.691,99.846,97.191l16.4,629.195C3084.456,3042.324,3092.294,3049.914,3101.812,3049.914z"/>
				<g>
					
						<linearGradient id="SVGID_00000099649939424217291860000015508036855405471646_" gradientUnits="userSpaceOnUse" x1="931.0306" y1="2568.8718" x2="1764.4957" y2="2266.4045">
						<stop  offset="0" style="stop-color:#E1473D"/>
						<stop  offset="1" style="stop-color:#E9605A"/>
					</linearGradient>
					<path style="fill:url(#SVGID_00000099649939424217291860000015508036855405471646_);" d="M2291.32,1912.57
						c0,0-5.286,290.723-172.672,352.392l29.954,24.667c0,0,186.767-61.668,225.531-234.341L2291.32,1912.57z"/>
					
						<linearGradient id="SVGID_00000111152674921529845260000016270384307959591845_" gradientUnits="userSpaceOnUse" x1="-4511.8931" y1="2193.3413" x2="-4681.1191" y2="2440.5002" gradientTransform="matrix(-1 0 0 1 -2475.8679 0)">
						<stop  offset="0" style="stop-color:#FEBBBA"/>
						<stop  offset="1" style="stop-color:#FF928E"/>
					</linearGradient>
					<path style="fill:url(#SVGID_00000111152674921529845260000016270384307959591845_);" d="M2146.512,2289.181l-104.923-4.372
						l31.11-31.11c5.865-5.865,14.892-7.165,22.173-3.193c0,0,48.044,15.429,57.121,28.868
						C2154.88,2283.65,2151.666,2289.396,2146.512,2289.181z"/>
					
						<linearGradient id="SVGID_00000145032883160775869020000000063501258790661271_" gradientUnits="userSpaceOnUse" x1="2433.3254" y1="2615.813" x2="3214.6597" y2="2590.6086">
						<stop  offset="0" style="stop-color:#09005D"/>
						<stop  offset="1" style="stop-color:#1A0F91"/>
					</linearGradient>
					<path style="fill:url(#SVGID_00000145032883160775869020000000063501258790661271_);" d="M2400.561,2317.82
						c0,0-105.718,218.483-109.241,331.248c-3.524,112.766,220.245,308.343,220.245,308.343l29.953-24.667
						c0,0-151.528-183.244-126.861-276.627c17.797-67.375,89.707-198.951,128.383-267.017c15.535-27.34,17.011-60.461,3.999-89.088
						l-14.33-31.526L2400.561,2317.82z"/>
					
						<linearGradient id="SVGID_00000080906373175761268580000000449024409543801743_" gradientUnits="userSpaceOnUse" x1="-5065.7783" y1="3120.9221" x2="-4993.5967" y2="3005.4316" gradientTransform="matrix(-1 0 0 1 -2475.8679 0)">
						<stop  offset="0" style="stop-color:#4F52FF"/>
						<stop  offset="1" style="stop-color:#4042E2"/>
					</linearGradient>
					<path style="fill:url(#SVGID_00000080906373175761268580000000449024409543801743_);" d="M2539.756,2932.743l23.527,18.574
						c6.23,4.918,9.335,12.8,8.116,20.643c-3.74,24.058-13.033,74.365-26.357,82.359c-12.242,7.345-48.297,5.334-69.167,3.423
						c-9.214-0.844-15.01-10.504-11.217-18.944c3.004-6.683,8.15-13.393,16.954-16.194c38.763-12.334,31.716-65.193,31.716-65.193
						L2539.756,2932.743z"/>
					
						<linearGradient id="SVGID_00000019650117980507584070000009068337561211877561_" gradientUnits="userSpaceOnUse" x1="-4821.5034" y1="2935.2537" x2="-4989.9272" y2="3115.7075" gradientTransform="matrix(-1 0 0 1 -2475.8679 0)">
						<stop  offset="0" style="stop-color:#4F52FF"/>
						<stop  offset="1" style="stop-color:#4042E2"/>
					</linearGradient>
					<path style="fill:url(#SVGID_00000019650117980507584070000009068337561211877561_);" d="M2488.659,2999.698
						c0,0-35.239,58.145-74.002,68.716c-38.763,10.572-77.726-19.799-79.288-29.953c-3.524-22.906,66.954-17.62,112.765-52.859
						C2478.795,2962.017,2509.802,2971.507,2488.659,2999.698z"/>
					
						<linearGradient id="SVGID_00000038395891817485209840000009963761678794006196_" gradientUnits="userSpaceOnUse" x1="3552.5198" y1="1721.7614" x2="3008.0806" y2="2162.0183">
						<stop  offset="0" style="stop-color:#09005D"/>
						<stop  offset="1" style="stop-color:#1A0F91"/>
					</linearGradient>
					<path style="fill:url(#SVGID_00000038395891817485209840000009963761678794006196_);" d="M2530.946,2252.628
						c0,0,63.431,88.098,33.477,148.004c-29.953,59.906-173.377,298.39-70.831,576.47c0,0-11.982,10.262-45.459,8.5
						c0,0-149.766-281.913-33.477-546.207c0,0,0-102.193-31.715-170.91L2530.946,2252.628z"/>
					
						<linearGradient id="SVGID_00000005953127335620902790000001878802698116171406_" gradientUnits="userSpaceOnUse" x1="2288.9036" y1="2105.4739" x2="2551.0425" y2="2065.1448">
						<stop  offset="0" style="stop-color:#FF928E"/>
						<stop  offset="1" style="stop-color:#FE7062"/>
					</linearGradient>
					<path style="fill:url(#SVGID_00000005953127335620902790000001878802698116171406_);" d="M2452.116,1848.383
						c-43.153-9.631-115.354-9.765-163.19,60.292c-11.502,16.845-14.615,38.046-8.528,57.515
						c24.036,76.871,92.76,293.94,120.163,351.63c0,0,90.109,26.649,152.534-34.248c0,0-30.959-113.756-39.769-143.709
						c-7.04-23.936-23.081-189.641-29.242-255.251C2482.419,1866.873,2469.505,1852.264,2452.116,1848.383z"/>
					
						<linearGradient id="SVGID_00000020392705555756308480000002399305896633367991_" gradientUnits="userSpaceOnUse" x1="-4883.1309" y1="1813.4755" x2="-4770.7114" y2="1813.4755" gradientTransform="matrix(-1 0 0 1 -2475.8679 0)">
						<stop  offset="0" style="stop-color:#FEBBBA"/>
						<stop  offset="1" style="stop-color:#FF928E"/>
					</linearGradient>
					<path style="fill:url(#SVGID_00000020392705555756308480000002399305896633367991_);" d="M2342.417,1748.708l63.848,94.109
						c2.737,6.526-0.349,14.034-6.894,16.724c-12.084,4.967-32.403,12.576-55.845,18.318c-7.329,1.795-14.683-2.895-16.237-10.279
						l-32.445-74.824L2342.417,1748.708z"/>
					<g>
						
							<linearGradient id="SVGID_00000096031985280176702080000003498363036726893215_" gradientUnits="userSpaceOnUse" x1="-4748.0083" y1="1719.4817" x2="-4883.5522" y2="1823.1934" gradientTransform="matrix(-1 0 0 1 -2475.8679 0)">
							<stop  offset="0" style="stop-color:#FEBBBA"/>
							<stop  offset="1" style="stop-color:#FF928E"/>
						</linearGradient>
						<path style="fill:url(#SVGID_00000096031985280176702080000003498363036726893215_);" d="M2277.111,1671.54
							c0,0-23.71,54.466-25.302,83.054c-1.592,28.588-7.752,47.137,25.302,52.894c33.055,5.757,60.901-10.71,75.986-39.186
							c0,0,23.636-43.879,18.334-61.849C2366.128,1688.482,2277.111,1671.54,2277.111,1671.54z"/>
						
							<linearGradient id="SVGID_00000004540032299612028990000004686291023993168016_" gradientUnits="userSpaceOnUse" x1="-4843.4248" y1="1637.3649" x2="-4717.1875" y2="1799.8954" gradientTransform="matrix(-1 0 0 1 -2475.8679 0)">
							<stop  offset="0" style="stop-color:#09005D"/>
							<stop  offset="1" style="stop-color:#1A0F91"/>
						</linearGradient>
						<path style="fill:url(#SVGID_00000004540032299612028990000004686291023993168016_);" d="M2341.801,1747.827l-1.882-0.829
							c-2.395-1.056-3.42-3.907-2.217-6.233c4.661-9.006,13.748-29.644,2.009-34.458c-15.128-6.204-75.054-18.425-87.983-39.688
							c-12.426-20.436-1.416-46.816,15.131-54.319c1.107-0.502,2.413-0.103,2.981,0.972l1.379,2.609
							c0.944,1.786,3.582,1.515,4.144-0.425l0,0c0.539-1.863,3.017-2.224,4.044-0.58c3.975,6.362,14.704,16.675,43.397,21.97
							c40.779,7.526,67.739,24.028,68.41,52.207c0.043,1.79,1.947,2.786,3.476,1.854c3.011-1.835,7.829-2.696,14.269,2.719
							c11.199,9.417,6.616,33.844-17.934,53.938c-1.166,0.954-1.156,2.775,0.106,3.598c4.451,2.897,11.085,9.791-6.106,18.981
							c-17.782,9.506-31.061,8.726-36.174,7.882c-1.272-0.21-2.092-1.441-1.814-2.7l5.457-24.766c0.309-1.402-0.758-2.73-2.194-2.73
							H2341.801z"/>
						
							<linearGradient id="SVGID_00000093877319966615261740000016848647627154945931_" gradientUnits="userSpaceOnUse" x1="-4764.8208" y1="1697.5089" x2="-4900.3647" y2="1801.2205" gradientTransform="matrix(-1 0 0 1 -2475.8679 0)">
							<stop  offset="0" style="stop-color:#FEBBBA"/>
							<stop  offset="1" style="stop-color:#FF928E"/>
						</linearGradient>
						<path style="fill:url(#SVGID_00000093877319966615261740000016848647627154945931_);" d="M2340.774,1753.053
							c0,0,9.046-34.792,24.644-25.037c15.599,9.755-8.094,38.983-20.635,40.285L2340.774,1753.053z"/>
					</g>
					
						<linearGradient id="SVGID_00000131332271705226820260000010568598978838179222_" gradientUnits="userSpaceOnUse" x1="2290.2742" y1="2114.3826" x2="2552.4116" y2="2074.0537">
						<stop  offset="0" style="stop-color:#FF928E"/>
						<stop  offset="1" style="stop-color:#FE7062"/>
					</linearGradient>
					<path style="fill:url(#SVGID_00000131332271705226820260000010568598978838179222_);" d="M2472.421,1860.834
						c0,0,155.432,131.024,164.242,219.121c8.81,88.098-88.098,220.245-88.098,220.245l-26.429-15.857
						c0,0,54.621-121.575,31.715-174.434c-27.573-63.629-146.242-149.766-146.242-149.766S2452.659,1861.957,2472.421,1860.834z"/>
				</g>
				
					<linearGradient id="SVGID_00000049916123527859985790000003433116714917462660_" gradientUnits="userSpaceOnUse" x1="2458.3953" y1="2753.6243" x2="2306.041" y2="3089.6995">
					<stop  offset="0" style="stop-color:#09005D"/>
					<stop  offset="1" style="stop-color:#1A0F91"/>
				</linearGradient>
				<path style="fill:url(#SVGID_00000049916123527859985790000003433116714917462660_);" d="M1757.44,3089.558
					c0.128,0,0.254-0.001,0.382-0.004c9.729-0.207,17.448-8.261,17.24-17.99l-13.306-625.4c-0.575-27.05,9.531-52.596,28.46-71.931
					c18.927-19.334,44.252-29.982,71.308-29.982h1185.814c54.518,0,98.337,42.691,99.757,97.191l16.4,629.195
					c0.254,9.728,8.278,17.461,18.073,17.154c9.728-0.254,17.408-8.345,17.154-18.073l-16.401-629.195
					c-0.922-35.393-15.396-68.491-40.755-93.198c-25.359-24.707-58.823-38.313-94.229-38.313H1861.523
					c-36.611,0-70.879,14.408-96.49,40.57c-25.612,26.162-39.288,60.729-38.509,97.333l13.307,625.4
					C1740.035,3081.914,1747.883,3089.557,1757.44,3089.558z"/>
				
					<linearGradient id="SVGID_00000083081412766461880860000004201286509412067243_" gradientUnits="userSpaceOnUse" x1="-4938.4956" y1="2351.1123" x2="-5014.4922" y2="2266.3469" gradientTransform="matrix(-1 0 0 1 -2475.8679 0)">
					<stop  offset="0" style="stop-color:#FEBBBA"/>
					<stop  offset="1" style="stop-color:#FF928E"/>
				</linearGradient>
				<path style="fill:url(#SVGID_00000083081412766461880860000004201286509412067243_);" d="M2553.095,2309.503
					c0,0-30.959-33.97-52.103-35.732c-21.144-1.762-60.241,38.633-61.835,47.508c-1.363,7.581,34.434,9.972,46.001-3.767
					c4.694-5.575,11.872-8.438,19.159-8.382L2553.095,2309.503z"/>
			</g>
			<g>
				
					<linearGradient id="SVGID_00000010308673100371473110000005367749742856488623_" gradientUnits="userSpaceOnUse" x1="4026.0313" y1="1613.7712" x2="4174.4839" y2="1986.1615" gradientTransform="matrix(1 0 0 1 -1310.4347 0)">
					<stop  offset="0" style="stop-color:#09005D"/>
					<stop  offset="1" style="stop-color:#1A0F91"/>
				</linearGradient>
				<path style="fill:url(#SVGID_00000010308673100371473110000005367749742856488623_);" d="M2792.217,1818.633
					c0,0,50.515,16.839,83.24,89.006c8.947,19.732,57.53,23.234,62.544,63.71c2.589,20.897,18.053,37.634,38.867,40.824
					c51.842,7.946,131.733,34.865,144.516,124.873c9.757,68.701-25.267,94.752-62.022,103.769
					c-26.996,6.622-44.937,32.881-39.476,60.136c5.237,26.142-2.573,56.361-47.861,80.26
					c-101.489,53.552-202.841-126.869-202.841-126.869l-20.772-315.025L2792.217,1818.633z"/>
				
					<linearGradient id="SVGID_00000042702548820894928940000015074194029795538605_" gradientUnits="userSpaceOnUse" x1="3470.9417" y1="4966.6333" x2="3783.4758" y2="4351.646" gradientTransform="matrix(1 0 0 1 -1310.4347 0)">
					<stop  offset="0" style="stop-color:#FF928E"/>
					<stop  offset="1" style="stop-color:#FE7062"/>
				</linearGradient>
				<path style="fill:url(#SVGID_00000042702548820894928940000015074194029795538605_);" d="M3070.874,3087.849l4.097,33.684
					c0.777,6.391,5.808,11.442,12.204,12.174c10.798,1.233,28.126,2.498,45.08,0.706c7.442-0.787,12.273-8.322,10.006-15.454
					c-4.133-13.003-11.694-32.523-22.595-44.01H3082.3C3075.392,3074.948,3070.04,3080.99,3070.874,3087.849z"/>
				
					<linearGradient id="SVGID_00000167363092692036759610000012311957438388309645_" gradientUnits="userSpaceOnUse" x1="4076.8298" y1="3389.199" x2="4180.4961" y2="2177.5991" gradientTransform="matrix(1 0 0 1 -1310.4347 0)">
					<stop  offset="0" style="stop-color:#FEBBBA"/>
					<stop  offset="1" style="stop-color:#FF928E"/>
				</linearGradient>
				<path style="fill:url(#SVGID_00000167363092692036759610000012311957438388309645_);" d="M2778.211,2693.263l-6.307,37.099
					c0,0,21.12,213.93,24.877,299.502c0.589,13.416-2.882,26.674-9.923,38.109l-36.725,59.637l93.335-55.075l1.858-11.39
					l-15.279-21.008l20.013-239.655c1.176-14.079-1.729-28.198-8.368-40.668l-19.306-36.268L2778.211,2693.263z"/>
				
					<linearGradient id="SVGID_00000168798253403771703840000008321024668372745873_" gradientUnits="userSpaceOnUse" x1="3229.7815" y1="4844.0752" x2="3542.3152" y2="4229.0889" gradientTransform="matrix(1 0 0 1 -1310.4347 0)">
					<stop  offset="0" style="stop-color:#FF928E"/>
					<stop  offset="1" style="stop-color:#FE7062"/>
				</linearGradient>
				<path style="fill:url(#SVGID_00000168798253403771703840000008321024668372745873_);" d="M2743.987,3136.25h29.785
					c5.575,0,10.833-2.56,14.233-6.978c9.285-12.065,28.523-35.604,37.722-36.219c12.383-0.827,10.799,43.197,10.799,43.197h6.941
					l8.792-54.705c2.212-13.764-4.633-27.399-16.993-33.849l0,0c0,0-2.831,20.935-18.18,30.195
					c-15.349,9.26-62.46,42.421-62.46,42.421s-5.77-0.823-12.105,0.323C2733.124,3122.333,2734.437,3136.25,2743.987,3136.25z"/>
				
					<linearGradient id="SVGID_00000169558762950545989960000010559634344258083769_" gradientUnits="userSpaceOnUse" x1="4285.3604" y1="3407.2268" x2="4389.0542" y2="2195.3081" gradientTransform="matrix(1 0 0 1 -1310.4347 0)">
					<stop  offset="0" style="stop-color:#FEBBBA"/>
					<stop  offset="1" style="stop-color:#FF928E"/>
				</linearGradient>
				<path style="fill:url(#SVGID_00000169558762950545989960000010559634344258083769_);" d="M2906.048,2710.884
					c0,0,123.729,234.701,143.397,288.287c19.667,53.586,26.558,98.289,26.821,102.522c0.413,6.614,8.639,12.958,31.317,12.958
					c11.704,0,17.436-4.691,20.242-9.232c2.394-3.874,2.518-8.722,0.501-12.805c-7.157-14.484-29.87-60.773-38.282-81.767
					c-10.043-25.066-31.646-138.663-43.495-178.159c-11.848-39.496-25.24-82.339-76.836-121.803
					C2969.714,2710.884,2934.296,2676.193,2906.048,2710.884z"/>
				
					<linearGradient id="SVGID_00000023978458222646017220000013611305918363557285_" gradientUnits="userSpaceOnUse" x1="3332.6748" y1="1780.0414" x2="3003.322" y2="2022.0149">
					<stop  offset="0" style="stop-color:#FF928E"/>
					<stop  offset="1" style="stop-color:#FE7062"/>
				</linearGradient>
				<path style="fill:url(#SVGID_00000023978458222646017220000013611305918363557285_);" d="M2827.887,2326.315
					c-31.917-135.243,48.937-211.733,48.937-211.733c-32.665-31.355-82.521-51.769-114.163-62.399
					c-18.764-6.303-39.454-1.998-54.077,11.345c-25.415,23.19-60.768,62.292-53.904,95.4
					c6.167,29.749,62.345,178.187,62.345,178.187S2768.973,2361.698,2827.887,2326.315z"/>
				
					<linearGradient id="SVGID_00000121975718036824012730000015611264632333849749_" gradientUnits="userSpaceOnUse" x1="-5142.9185" y1="2279.0593" x2="-5441.1826" y2="2777.8809" gradientTransform="matrix(-1 0 0 1 -2475.8679 0)">
					<stop  offset="0" style="stop-color:#09005D"/>
					<stop  offset="1" style="stop-color:#1A0F91"/>
				</linearGradient>
				<path style="fill:url(#SVGID_00000121975718036824012730000015611264632333849749_);" d="M2898.65,2393.269
					c-12.989-39.13-70.763-66.954-70.763-66.954c-58.914,35.384-110.862,10.799-110.862,10.799s-11.65,44.53-3.609,85.913
					c8.041,41.382,58.488,307.336,58.488,307.336c79.488,16.106,201.738-16.204,201.738-16.204
					C2923.012,2624.267,2911.639,2432.399,2898.65,2393.269z"/>
				
					<linearGradient id="SVGID_00000176010344481717664890000000951177870864313771_" gradientUnits="userSpaceOnUse" x1="4065.4612" y1="2194.9241" x2="4084.9346" y2="2052.4614" gradientTransform="matrix(1 0 0 1 -1310.4347 0)">
					<stop  offset="0" style="stop-color:#FEBBBA"/>
					<stop  offset="1" style="stop-color:#FF928E"/>
				</linearGradient>
				<path style="fill:url(#SVGID_00000176010344481717664890000000951177870864313771_);" d="M2790.84,1953.954l25.949,116.556
					c2.485,10.267-6.875,8.586-17.255,6.629c-16.998-3.204-38.907-9.806-46.23-23.032c-0.745-1.346-1.117-2.868-1.328-4.392
					l-11.148-80.824c-0.885-6.412,2.582-12.635,8.499-15.259l21.512-9.539C2779.123,1940.422,2788.71,1945.147,2790.84,1953.954z"/>
				<g>
					
						<linearGradient id="SVGID_00000030484557586299448010000015960157895037074820_" gradientUnits="userSpaceOnUse" x1="3766.4036" y1="2909.9915" x2="3936.3169" y2="2607.6028" gradientTransform="matrix(0.9809 -0.1943 0.1943 0.9809 -1539.5248 -99.2406)">
						<stop  offset="0" style="stop-color:#FEBBBA"/>
						<stop  offset="1" style="stop-color:#FF928E"/>
					</linearGradient>
					<path style="fill:url(#SVGID_00000030484557586299448010000015960157895037074820_);" d="M2741.138,1847.701
						c0,0-27.625,18.7-39.496,66.322c-11.87,47.622,7.421,64.704,27.195,63.658c19.774-1.047,48.446-7.162,73.287-41.326
						C2826.966,1902.19,2777.339,1824.851,2741.138,1847.701z"/>
					
						<linearGradient id="SVGID_00000038370806607671781180000017342885503913724341_" gradientUnits="userSpaceOnUse" x1="3802.9451" y1="2646.6592" x2="3887.9016" y2="2859.771" gradientTransform="matrix(0.9809 -0.1943 0.1943 0.9809 -1539.5248 -99.2406)">
						<stop  offset="0" style="stop-color:#09005D"/>
						<stop  offset="1" style="stop-color:#1A0F91"/>
					</linearGradient>
					<path style="fill:url(#SVGID_00000038370806607671781180000017342885503913724341_);" d="M2777.073,1917.147
						c0,0,10.121-68.238-46.533-57.801l-11.456,11.927c0,0-27.731-31.231,2.957-54.838c30.688-23.607,73.274-17.561,96.835,25.416
						c23.561,42.978,32.112,73.178,12.364,99.883c-19.748,26.705-34.603,3.802-34.603,3.802s9.057-23.114,1.542-33.033
						c-7.516-9.918-17.211,5.768-17.211,5.768L2777.073,1917.147z"/>
					
						<linearGradient id="SVGID_00000070809026341125135050000003593805949547541179_" gradientUnits="userSpaceOnUse" x1="3802.5708" y1="2930.3174" x2="3972.4851" y2="2627.927" gradientTransform="matrix(0.9809 -0.1943 0.1943 0.9809 -1539.5248 -99.2406)">
						<stop  offset="0" style="stop-color:#FEBBBA"/>
						<stop  offset="1" style="stop-color:#FF928E"/>
					</linearGradient>
					<path style="fill:url(#SVGID_00000070809026341125135050000003593805949547541179_);" d="M2784.816,1922.99
						c0,0,4.997-35.108,22.927-25.072c17.93,10.037-6.462,32.797-16.242,40.54L2784.816,1922.99z"/>
				</g>
				<path style="fill:#91B3FA;" d="M2768.311,1821.502c0,0,2.36,0.606,6.58,2.344c4.209,1.735,10.235,4.729,17.288,9.433
					c7.073,4.701,15.345,11.009,23.502,19.624c4.119,4.266,8.157,9.127,12.129,14.47c3.855,5.425,7.586,11.365,10.954,17.854
					c3.303,6.517,6.278,13.549,8.697,21.054c2.514,7.479,4.027,15.566,5.599,23.658c1.634,8.02,3.791,16.41,8.705,23.138
					c5.056,6.901,12.611,11.533,20.594,15.614c7.977,4.095,16.615,7.809,24.255,13.599c7.585,5.763,14.173,13.047,19.083,21.449
					c2.456,4.2,4.55,8.626,6.126,13.295c1.57,4.592,2.732,9.338,3.989,13.934c2.429,9.177,5.743,18.295,12.962,24.177
					c7.014,5.947,16.444,8.595,25.699,10.486c9.349,1.833,18.958,3.186,28.223,5.88c18.494,5.155,35.824,13.756,50.026,25.323
					c14.209,11.618,25.202,26.463,30.257,42.671c5.245,16.175,3.389,33.268-3.305,46.426c-6.497,13.289-18.051,22.688-29.876,25.334
					c-11.804,2.742-22.627,0.315-30.207-3.545c-7.785-3.766-12.322-9.176-14.781-12.978c-0.586-0.989-1.14-1.841-1.551-2.612
					c-0.353-0.802-0.65-1.477-0.888-2.02c-0.478-1.086-0.722-1.647-0.722-1.647l0.788-0.293c0,0,0.248,0.542,0.73,1.591
					c0.241,0.524,0.54,1.175,0.894,1.948c0.412,0.743,0.967,1.563,1.551,2.512c2.452,3.649,6.93,8.819,14.544,12.342
					c7.404,3.626,17.962,5.774,29.205,2.952c11.203-2.708,22.053-11.856,28.256-24.6c6.36-12.682,8.051-29.132,2.914-44.638
					c-4.941-15.58-15.737-30.001-29.584-41.187c-13.988-11.259-30.941-19.544-49.103-24.501c-9.045-2.577-18.484-3.852-28.03-5.662
					c-9.434-1.9-19.4-4.488-27.345-11.109c-3.912-3.245-7.014-7.46-9.144-12.003c-2.163-4.535-3.563-9.281-4.813-13.955
					c-1.254-4.692-2.35-9.296-3.855-13.78c-1.46-4.418-3.443-8.684-5.765-12.704c-4.639-8.06-10.917-15.08-18.135-20.635
					c-7.238-5.565-15.65-9.263-23.737-13.466c-8.025-4.147-16.108-9.162-21.415-16.494c-5.414-7.52-7.452-16.191-9.093-24.331
					c-1.544-8.209-2.964-16.059-5.391-23.432c-2.33-7.383-5.212-14.31-8.423-20.74c-6.564-12.801-14.421-23.528-22.359-32.117
					c-7.903-8.646-15.972-15.023-22.875-19.789c-6.941-4.806-12.824-7.854-16.953-9.642c-4.13-1.788-6.457-2.429-6.457-2.429
					L2768.311,1821.502z"/>
				<path style="fill:#91B3FA;" d="M2837.46,1910.603c0,0,0.166,1.548,0.478,4.45c0.315,2.896,0.825,7.144,1.659,12.5
					c0.855,5.346,2.133,11.828,4.7,18.847c2.634,6.946,6.721,14.483,13.504,20.51c6.723,6.079,15.896,10.667,24.61,17.139
					c8.724,6.383,17.48,14.141,24.185,24.187c3.349,4.969,6.121,10.611,7.997,16.457c1.948,5.987,2.981,12.094,3.851,18.222
					c1.711,12.193,2.57,24.668,7.426,35.585c4.705,11.041,13.925,19.28,24.406,24.952c10.476,5.752,22.052,8.824,33.37,11.309
					c11.343,2.435,22.524,4.526,32.91,7.672c10.381,3.158,19.91,7.444,27.659,13.08c7.801,5.561,13.579,12.533,16.951,19.593
					c3.554,7.128,3.061,14.614,1.383,19.839c-1.6,5.341-3.751,9.12-5.107,11.707c-1.427,2.555-2.189,3.917-2.189,3.917l-0.74-0.398
					c0,0,0.689-1.392,1.982-4.002c1.234-2.622,3.11-6.49,4.475-11.654c0.663-2.567,1.106-5.536,0.898-8.632
					c-0.171-3.197-1.144-6.47-2.826-9.741c-3.433-6.507-9.127-12.906-16.64-18.063c-7.503-5.205-16.773-9.139-26.912-11.974
					c-10.186-2.838-21.284-4.608-32.769-7.055c-11.444-2.426-23.512-5.496-34.655-11.499c-5.548-2.981-10.891-6.608-15.527-11.14
					c-2.329-2.274-4.46-4.664-6.375-7.436c-1.902-2.632-3.462-5.491-4.8-8.486c-5.22-12.081-5.899-24.966-7.527-36.943
					c-0.799-6.005-1.787-11.947-3.522-17.413c-1.757-5.607-4.242-10.739-7.373-15.478c-6.277-9.442-14.438-17.154-22.813-23.557
					c-8.313-6.494-17.37-11.238-24.444-17.879c-7.16-6.592-11.175-14.78-13.609-22.039c-2.383-7.348-3.428-13.968-4.094-19.398
					c-0.671-5.437-0.911-9.724-1.103-12.641c-0.167-2.916-0.256-4.471-0.256-4.471L2837.46,1910.603z"/>
				
					<linearGradient id="SVGID_00000020397594245798585710000005279476738260996486_" gradientUnits="userSpaceOnUse" x1="-5365.1416" y1="2242.3367" x2="-5002.4092" y2="2242.3367" gradientTransform="matrix(-1 0 0 1 -2475.8679 0)">
					<stop  offset="0" style="stop-color:#FEBBBA"/>
					<stop  offset="1" style="stop-color:#FF928E"/>
				</linearGradient>
				<path style="fill:url(#SVGID_00000020397594245798585710000005279476738260996486_);" d="M2877.367,2115.776
					c0,0,50.854,205.112-57.635,244.1c-108.489,38.988-247.49-61.025-247.49-61.025s-23.732-11.866-37.293-8.476
					s-11.866-47.464,13.561-61.025c25.427-13.561,54.244,44.074,54.244,44.074s238.398,118.77,216.67-85.549
					C2819.424,2187.875,2787.525,2119.167,2877.367,2115.776z"/>
			</g>
		</g>
		<g>
			<g>
				
					<linearGradient id="SVGID_00000023253102375603574500000010388059164684685723_" gradientUnits="userSpaceOnUse" x1="1852.2449" y1="1785.0842" x2="1351.5399" y2="2425.6924">
					<stop  offset="0" style="stop-color:#DAE3FE"/>
					<stop  offset="1" style="stop-color:#E9EFFD"/>
				</linearGradient>
				<path style="fill:url(#SVGID_00000023253102375603574500000010388059164684685723_);" d="M1849.927,2063.552l-28.031,6.839
					c-34.16,10.289-63.017,12.916-87.693,10.304c-77.046-8.154-113.213-67.508-141.848-105.254
					c-37.807-49.835-79.548-41.225-79.548-41.225l25.547,109.962c57.163,91.087,138.928,95.418,193.892,85.007
					c34.988-6.627,59.12-19.226,59.12-19.226C1855.708,2091.225,1849.927,2063.552,1849.927,2063.552z"/>
				
					<linearGradient id="SVGID_00000176753764618867220730000004643464965074354335_" gradientUnits="userSpaceOnUse" x1="1006.9793" y1="1579.4741" x2="655.1109" y2="2029.6589" gradientTransform="matrix(0.9678 0.2516 -0.2516 0.9678 1418.6709 216.9008)">
					<stop  offset="0" style="stop-color:#FEBBBA"/>
					<stop  offset="1" style="stop-color:#FF928E"/>
				</linearGradient>
				<path style="fill:url(#SVGID_00000176753764618867220730000004643464965074354335_);" d="M1913.361,2117.039
					c-0.216-5.69-3.007-10.974-7.586-14.36l-44.688-33.045c0,0,0.911-6.597,13.339-8.009c12.429-1.412,13.077-14.752,13.077-14.752
					s-17.265,3.028-42.766,8.32c-14.583,3.026-24.766,12.418-30.818,19.906l8.455,20.236c28.357,17.238,59.022,27.096,91.364,31.592
					L1913.361,2117.039z"/>
			</g>
			<polygon style="fill:#7D97F4;" points="1246.724,2725.56 1468.58,2734.138 1468.58,2653.041 1281.234,2635.885 			"/>
			
				<linearGradient id="SVGID_00000080904811609337984570000002399120383960372359_" gradientUnits="userSpaceOnUse" x1="-2725.4404" y1="1452.4542" x2="-2559.696" y2="1868.2205" gradientTransform="matrix(-1 0 0 1 -1165.4333 0)">
				<stop  offset="0" style="stop-color:#09005D"/>
				<stop  offset="1" style="stop-color:#1A0F91"/>
			</linearGradient>
			<path style="fill:url(#SVGID_00000080904811609337984570000002399120383960372359_);" d="M1474.462,1681.178
				c0,0-56.4,18.8-92.936,99.374c-9.989,22.03-64.231,25.94-69.83,71.13c-2.89,23.331-20.156,42.017-43.394,45.579
				c-57.88,8.871-147.078,38.926-161.35,139.418c-10.893,76.703,28.21,105.789,69.246,115.856
				c30.141,7.393,50.171,36.71,44.075,67.14c-5.848,29.187,2.872,62.926,53.435,89.608
				c113.31,59.79,226.467-141.646,226.467-141.646l23.191-351.719L1474.462,1681.178z"/>
			
				<linearGradient id="SVGID_00000113341063315594486410000008593286605817436335_" gradientUnits="userSpaceOnUse" x1="-2309.7627" y1="3117.521" x2="-2229.3357" y2="3117.521" gradientTransform="matrix(-1 0 0 1 -1165.4333 0)">
				<stop  offset="0" style="stop-color:#09005D"/>
				<stop  offset="1" style="stop-color:#1A0F91"/>
			</linearGradient>
			<path style="fill:url(#SVGID_00000113341063315594486410000008593286605817436335_);" d="M1144.234,3098.232l-4.575,37.607
				c-0.868,7.135-6.485,12.775-13.626,13.592c-12.055,1.377-31.402,2.788-50.33,0.788c-8.309-0.878-13.703-9.292-11.172-17.254
				c4.615-14.518,13.056-36.311,25.227-49.136h41.719C1139.189,3083.828,1145.165,3090.575,1144.234,3098.232z"/>
			
				<linearGradient id="SVGID_00000073693847901172960420000000320427128471168670_" gradientUnits="userSpaceOnUse" x1="-2649.6113" y1="3434.6836" x2="-2533.8701" y2="2081.957" gradientTransform="matrix(-1 0 0 1 -1165.4333 0)">
				<stop  offset="0" style="stop-color:#FEBBBA"/>
				<stop  offset="1" style="stop-color:#FF928E"/>
			</linearGradient>
			<path style="fill:url(#SVGID_00000073693847901172960420000000320427128471168670_);" d="M1470.986,2657.686l7.041,41.42
				c0,0-23.58,238.849-27.774,334.388c-0.657,14.979,3.217,29.781,11.079,42.548l41.002,66.583l-104.206-61.49l-2.074-12.717
				l17.058-23.455l-22.344-267.569c-1.313-15.719,1.931-31.482,9.342-45.406l21.555-40.493L1470.986,2657.686z"/>
			
				<linearGradient id="SVGID_00000158715156286009929270000001735521365945833356_" gradientUnits="userSpaceOnUse" x1="-2683.4231" y1="3102.8367" x2="-2553.2849" y2="3102.8367" gradientTransform="matrix(-1 0 0 1 -1165.4333 0)">
				<stop  offset="0" style="stop-color:#09005D"/>
				<stop  offset="1" style="stop-color:#1A0F91"/>
			</linearGradient>
			<path style="fill:url(#SVGID_00000158715156286009929270000001735521365945833356_);" d="M1509.197,3152.271h-33.255
				c-6.224,0-12.094-2.858-15.891-7.79c-10.367-13.471-31.845-39.751-42.116-40.438c-13.825-0.924-12.057,48.228-12.057,48.228
				h-7.75l-9.816-61.076c-2.47-15.367,5.172-30.591,18.972-37.792l0,0c0,0,3.16,23.373,20.298,33.712
				c17.136,10.338,69.736,47.362,69.736,47.362s6.442-0.919,13.515,0.36C1521.324,3136.733,1519.859,3152.271,1509.197,3152.271z"/>
			
				<linearGradient id="SVGID_00000007395333485235355070000001971113468566772360_" gradientUnits="userSpaceOnUse" x1="-2416.791" y1="3454.8108" x2="-2301.0193" y2="2101.7288" gradientTransform="matrix(-1 0 0 1 -1165.4333 0)">
				<stop  offset="0" style="stop-color:#FEBBBA"/>
				<stop  offset="1" style="stop-color:#FF928E"/>
			</linearGradient>
			<path style="fill:url(#SVGID_00000007395333485235355070000001971113468566772360_);" d="M1328.258,2677.358
				c0,0-138.14,262.039-160.1,321.866c-21.958,59.828-29.651,109.737-29.945,114.464c-0.461,7.385-9.646,14.467-34.965,14.467
				c-13.067,0-19.467-5.237-22.6-10.307c-2.673-4.325-2.812-9.738-0.559-14.297c7.991-16.171,33.349-67.851,42.741-91.291
				c11.213-27.986,35.333-154.815,48.561-198.911c13.228-44.097,28.18-91.93,85.786-135.991
				C1257.176,2677.358,1296.72,2638.627,1328.258,2677.358z"/>
			
				<linearGradient id="SVGID_00000006701131091585468340000016466855675448004487_" gradientUnits="userSpaceOnUse" x1="1839.7072" y1="1730.6259" x2="1727.6823" y2="1847.1317">
				<stop  offset="0" style="stop-color:#FF928E"/>
				<stop  offset="1" style="stop-color:#FE7062"/>
			</linearGradient>
			<path style="fill:url(#SVGID_00000006701131091585468340000016466855675448004487_);" d="M1415.523,2247.995
				c35.634-150.995-54.637-236.396-54.637-236.396c36.469-35.007,92.133-57.799,127.461-69.667
				c20.95-7.038,44.05-2.231,60.376,12.666c28.375,25.891,67.846,69.548,60.183,106.512
				c-6.885,33.214-69.607,198.941-69.607,198.941S1481.3,2287.5,1415.523,2247.995z"/>
			
				<linearGradient id="SVGID_00000139975548018572712550000015013235112151635079_" gradientUnits="userSpaceOnUse" x1="2002.1071" y1="1886.7788" x2="1890.082" y2="2003.2849">
				<stop  offset="0" style="stop-color:#FF928E"/>
				<stop  offset="1" style="stop-color:#FE7062"/>
			</linearGradient>
			<path style="fill:url(#SVGID_00000139975548018572712550000015013235112151635079_);" d="M1336.518,2322.748
				c14.502-43.688,79.005-74.753,79.005-74.753c65.777,39.505,123.775,12.057,123.775,12.057s13.007,49.716,4.029,95.919
				c-8.977,46.202-65.301,343.135-65.301,343.135c-88.746,17.982-225.237-18.092-225.237-18.092
				C1309.319,2580.653,1322.016,2366.435,1336.518,2322.748z"/>
			
				<linearGradient id="SVGID_00000077285703653370876560000015480411884678835118_" gradientUnits="userSpaceOnUse" x1="-2662.3044" y1="2101.3" x2="-2640.5627" y2="1942.2433" gradientTransform="matrix(-1 0 0 1 -1165.4333 0)">
				<stop  offset="0" style="stop-color:#FEBBBA"/>
				<stop  offset="1" style="stop-color:#FF928E"/>
			</linearGradient>
			<path style="fill:url(#SVGID_00000077285703653370876560000015480411884678835118_);" d="M1456.886,1832.262l-28.972,130.132
				c-2.774,11.463,7.677,9.586,19.265,7.402c18.978-3.578,43.438-10.948,51.615-25.715c0.832-1.503,1.248-3.202,1.483-4.904
				l12.447-90.238c0.988-7.158-2.882-14.106-9.489-17.036l-24.018-10.65C1469.968,1817.153,1459.264,1822.429,1456.886,1832.262z"/>
			<g>
				
					<linearGradient id="SVGID_00000008859215133512224470000013541185593079969178_" gradientUnits="userSpaceOnUse" x1="-2490.011" y1="1514.2362" x2="-2300.3066" y2="1176.6263" gradientTransform="matrix(-0.8982 -0.4395 -0.4395 0.8982 -66.1878 -530.4197)">
					<stop  offset="0" style="stop-color:#FEBBBA"/>
					<stop  offset="1" style="stop-color:#FF928E"/>
				</linearGradient>
				<path style="fill:url(#SVGID_00000008859215133512224470000013541185593079969178_);" d="M1532.73,1728.522
					c0,0,24.451,28.094,23.616,82.884c-0.836,54.79-26.547,67.695-47.585,60.9c-21.039-6.795-50.225-21.609-67.242-65.593
					C1424.501,1762.729,1500.213,1693.492,1532.73,1728.522z"/>
				
					<linearGradient id="SVGID_00000009578123400175550160000014028845454654695857_" gradientUnits="userSpaceOnUse" x1="-2449.2146" y1="1220.2311" x2="-2354.3625" y2="1458.1654" gradientTransform="matrix(-0.8982 -0.4395 -0.4395 0.8982 -66.1878 -530.4197)">
					<stop  offset="0" style="stop-color:#09005D"/>
					<stop  offset="1" style="stop-color:#1A0F91"/>
				</linearGradient>
				<path style="fill:url(#SVGID_00000009578123400175550160000014028845454654695857_);" d="M1474.054,1793.164
					c0,0,8.63-76.535,66.774-49.039l8.944,16.153c0,0,38.873-25.755,12.521-60.022c-26.352-34.267-74.037-39.945-111.776-0.32
					c-37.738,39.626-55.618,69.764-41.96,104.24c13.658,34.476,36.25,14.016,36.25,14.016s-3.15-27.537,7.801-36.087
					c10.952-8.549,16.919,11.156,16.919,11.156L1474.054,1793.164z"/>
				
					<linearGradient id="SVGID_00000129885982714707016610000014621313964479470520_" gradientUnits="userSpaceOnUse" x1="-2458.7026" y1="1542.4155" x2="-2268.9978" y2="1204.8044" gradientTransform="matrix(-0.8982 -0.4395 -0.4395 0.8982 -66.1878 -530.4197)">
					<stop  offset="0" style="stop-color:#FEBBBA"/>
					<stop  offset="1" style="stop-color:#FF928E"/>
				</linearGradient>
				<path style="fill:url(#SVGID_00000129885982714707016610000014621313964479470520_);" d="M1469.761,1806.167
					c0,0,4.667-39.316-17.557-33.625c-22.224,5.694-2.424,37.242,5.912,48.4L1469.761,1806.167z"/>
			</g>
			<path style="fill:#91B3FA;" d="M1501.457,1685.364c-13.59,4.453-25.724,12.591-36.751,21.585
				c-11.059,9.053-20.648,19.823-28.742,31.535c-8.104,11.724-14.642,24.521-19.197,38.01c-2.277,6.748-4.082,13.615-5.418,20.634
				c-1.365,7.021-2.509,14.202-4.688,21.246c-2.123,7.01-5.578,13.968-10.874,19.349c-5.177,5.466-11.544,9.425-17.926,12.882
				c-6.407,3.448-12.951,6.438-19.106,9.929c-6.183,3.426-11.819,7.613-16.839,12.52c-10.065,9.796-17.311,22.275-20.967,35.852
				c-1.942,6.817-3.421,13.928-5.986,20.907c-2.498,6.935-6.5,13.862-12.496,18.717c-5.891,4.944-12.982,7.908-20.041,9.946
				c-7.099,2.016-14.282,3.207-21.361,4.419c-14.127,2.228-27.889,5.91-41.008,11.414c-13.063,5.531-25.464,12.774-36.287,21.92
				c-10.822,9.108-20.081,20.193-26.362,32.835c-6.315,12.59-9.297,26.912-7.432,40.87c1.928,13.851,8.067,27.436,18.477,36.875
				c5.157,4.715,11.279,8.424,18.003,10.359c6.741,1.901,13.942,2.141,20.883,0.969c13.846-2.176,27.12-11.041,32.33-24.407
				l1.049,0.39c-5.103,13.931-18.691,23.428-33.023,25.973c-7.193,1.364-14.719,1.276-21.877-0.588
				c-7.168-1.906-13.742-5.708-19.277-10.574c-11.145-9.85-17.602-24.085-19.739-38.565c-2.065-14.634,0.984-29.729,7.461-42.843
				c6.448-13.202,15.95-24.716,27.045-34.189c11.102-9.512,23.777-17.027,37.147-22.799c13.38-5.734,27.584-9.625,41.853-11.974
				c7.084-1.261,14.112-2.488,20.848-4.453c6.702-1.982,13.143-4.784,18.286-9.172c5.186-4.332,8.781-10.205,11.186-16.741
				c2.459-6.52,3.983-13.526,6.023-20.525c3.923-14.179,11.711-27.405,22.366-37.602c5.298-5.116,11.351-9.53,17.777-13.028
				c6.389-3.56,12.97-6.506,19.252-9.833c6.256-3.327,12.291-7.057,17.071-12.041c4.877-4.89,8.07-11.159,10.164-17.855
				c2.129-6.699,3.319-13.759,4.744-20.839c1.404-7.104,3.311-14.167,5.684-21.028c4.756-13.746,11.51-26.756,19.867-38.631
				c8.493-11.76,18.463-22.489,29.861-31.431c11.368-8.879,23.766-16.836,37.696-21.088L1501.457,1685.364z"/>
			<path style="fill:#91B3FA;" d="M1424.974,1783.943c-0.456,9.262-1.007,18.571-2.718,27.791
				c-1.674,9.187-4.372,18.42-9.375,26.639c-2.495,4.08-5.532,7.903-9.052,11.182c-3.503,3.289-7.339,6.111-11.192,8.768
				c-7.777,5.222-15.323,10.257-22.213,16.252c-13.739,11.777-25.281,26.525-28.899,44.164
				c-4.133,17.457-3.008,36.769-10.768,55.013c-3.932,9.031-10.485,16.82-18.12,22.732c-7.653,5.967-16.306,10.326-25.218,13.614
				c-17.96,6.483-36.58,8.766-54.43,12.833c-17.688,4.014-35.403,10.767-47.926,23.87c-6.058,6.456-11.415,14.457-11.519,23.374
				c-0.082,8.957,4.073,17.557,8.151,25.775l-0.986,0.53c-4.57-7.965-9.388-16.45-9.728-26.294
				c-0.145-4.872,1.142-9.759,3.266-14.068c2.109-4.335,4.88-8.265,8.022-11.879c12.969-14.375,31.438-21.842,49.454-26.465
				c18.117-4.785,36.638-6.957,53.574-13.371c8.431-3.192,16.49-7.375,23.423-12.886c6.944-5.492,12.592-12.395,16.037-20.417
				c7.196-16.174,6.442-35.219,10.864-53.76c2.167-9.325,6.182-18.425,11.771-26.214c5.492-7.888,12.297-14.681,19.639-20.61
				c7.276-6.002,15.333-11.067,23.074-15.968c7.75-4.914,14.762-10.584,19.586-18.193c5.01-7.455,8.032-16.209,10.06-25.131
				c2.025-8.954,3.069-18.164,4.105-27.369L1424.974,1783.943z"/>
			
				<linearGradient id="SVGID_00000129195374766873033230000015684034396144482708_" gradientUnits="userSpaceOnUse" x1="1192.5393" y1="2344.7837" x2="1496.2324" y2="2344.7837">
				<stop  offset="0" style="stop-color:#DAE3FE"/>
				<stop  offset="1" style="stop-color:#E9EFFD"/>
			</linearGradient>
			<path style="fill:url(#SVGID_00000129195374766873033230000015684034396144482708_);" d="M1486.911,2062.418l-54.48-120.313
				c-23.232,5.957-72.151,70.827-72.151,70.827s47.198,195.114,0.606,247.099c-41.358,46.144-145.026,383.931-167.798,459.246
				c-1.106,3.658-0.525,7.619,1.591,10.801c2.116,3.183,5.544,5.253,9.345,5.644l113.375,11.671
				c6.255,0.644,12.051-3.352,13.673-9.427l161.616-605.362C1498.927,2109.243,1496.885,2084.444,1486.911,2062.418z"/>
			
				<linearGradient id="SVGID_00000161630918684349874340000002023176672449021575_" gradientUnits="userSpaceOnUse" x1="1435.0673" y1="2344.8938" x2="1611.6687" y2="2344.8938">
				<stop  offset="0" style="stop-color:#DAE3FE"/>
				<stop  offset="1" style="stop-color:#E9EFFD"/>
			</linearGradient>
			<path style="fill:url(#SVGID_00000161630918684349874340000002023176672449021575_);" d="M1609.874,2079.123
				c0,0,19.158-66.056-67.705-129.721c0,0-37.469-28.524-41.892-10.224l30.927,148.12l-96.001,654.787
				c-0.619,4.223,0.908,8.477,4.073,11.342c3.165,2.865,7.55,3.963,11.691,2.929l23.63-5.908c4.745-1.187,8.401-4.977,9.418-9.762
				c13.438-63.218,102.711-488.844,76.523-516.892C1560.537,2223.793,1612.009,2092.236,1609.874,2079.123z"/>
			
				<linearGradient id="SVGID_00000173844841519053973660000002849165216379411127_" gradientUnits="userSpaceOnUse" x1="1346.9869" y1="2154.2349" x2="1751.9702" y2="2154.2349">
				<stop  offset="0" style="stop-color:#DAE3FE"/>
				<stop  offset="1" style="stop-color:#E9EFFD"/>
			</linearGradient>
			<path style="fill:url(#SVGID_00000173844841519053973660000002849165216379411127_);" d="M1360.28,2012.933
				c0,0-56.778,229.003,64.348,272.532c121.126,43.53,276.317-68.133,276.317-68.133s26.497-13.248,41.637-9.462
				c15.141,3.785,13.248-52.993-15.141-68.134c-28.389-15.141-60.563,49.208-60.563,49.208s-266.167,132.604-241.907-95.514
				C1424.972,2093.429,1460.588,2016.718,1360.28,2012.933z"/>
			<g>
				
					<linearGradient id="SVGID_00000027586973965717462970000007063134120676745115_" gradientUnits="userSpaceOnUse" x1="2019.5697" y1="930.1613" x2="1938.9116" y2="1239.3502">
					<stop  offset="0" style="stop-color:#09005D"/>
					<stop  offset="1" style="stop-color:#1A0F91"/>
				</linearGradient>
				<path style="fill:url(#SVGID_00000027586973965717462970000007063134120676745115_);" d="M1530.847,2346.086l65.853-229.974
					c0.747-2.611,2.974-4.515,5.672-4.829c11.931-1.392,46.504-5.3,86.422-8.677c48.083-4.067,103.92-7.363,137.287-4.559
					c4.743,0.398,7.61,5.416,5.501,9.683c-18.975,38.387-97.024,194.539-136.107,245.692c-1.295,1.695-3.298,2.685-5.429,2.666
					l-152.791-1.422C1532.807,2354.625,1529.623,2350.36,1530.847,2346.086z"/>
				
					<linearGradient id="SVGID_00000169544310967538173530000006474591845196450454_" gradientUnits="userSpaceOnUse" x1="1743.4608" y1="1979.1409" x2="1710.4822" y2="2123.9602">
					<stop  offset="0" style="stop-color:#4F52FF"/>
					<stop  offset="1" style="stop-color:#4042E2"/>
				</linearGradient>
				<path style="fill:url(#SVGID_00000169544310967538173530000006474591845196450454_);" d="M1695.625,2082.668l47.744-7.956
					c2.543-0.423,4.626,2.006,3.818,4.454l-4.727,14.322c-0.411,1.247-1.499,2.149-2.8,2.323l-45.944,6.137
					c-2.377,0.317-4.337-1.843-3.79-4.178l2.926-12.504C1693.166,2083.921,1694.26,2082.896,1695.625,2082.668z"/>
				
					<linearGradient id="SVGID_00000136408529932888661290000010083471817650088333_" gradientUnits="userSpaceOnUse" x1="1726.2014" y1="2039.8881" x2="1710.4291" y2="2134.5225">
					<stop  offset="0" style="stop-color:#4F52FF"/>
					<stop  offset="1" style="stop-color:#4042E2"/>
				</linearGradient>
				<path style="fill:url(#SVGID_00000136408529932888661290000010083471817650088333_);" d="M1659.874,2123.088l3.933-20.488
					c0.394-2.055,2.091-3.608,4.172-3.819l96.433-9.786c3.246-0.329,5.845,2.646,5.083,5.818l-6.132,25.53
					c-0.49,2.042-2.268,3.518-4.367,3.623l-94.235,4.744C1661.696,2128.865,1659.296,2126.104,1659.874,2123.088z"/>
				
					<linearGradient id="SVGID_00000132057852865975315250000002946228796266585271_" gradientUnits="userSpaceOnUse" x1="1654.718" y1="2213.2815" x2="1905.6538" y2="2110.2185">
					<stop  offset="0" style="stop-color:#FEBBBA"/>
					<stop  offset="1" style="stop-color:#FF928E"/>
				</linearGradient>
				<path style="fill:url(#SVGID_00000132057852865975315250000002946228796266585271_);" d="M1546.757,2290.524
					c0,0-9.174-37.721-5.473-51.104c3.7-13.383,10.87-30.589,34.767-26.765s52.087,13.89,52.087,13.89s-1.424,17.432-19.587,11.808
					l11.262,8.715c0,0-1.61,13.957-16.951,6.5l10.475,11.558c0,0-6.589,11.463-17.875,4.111
					C1584.176,2261.885,1578.766,2295.066,1546.757,2290.524z"/>
			</g>
			<g>
				<g>
					<path style="fill:#91B3FA;" d="M1450.054,2287.58c-0.049,0-0.097,0-0.146,0c-55.144,0-76.236-41.74-76.441-42.175
						c-0.739-1.553-0.076-1.448,1.478-2.189c1.552-0.731,3.413,0.903,4.156,2.456c0.192,0.402,19.8,40.686,71.094,43.038
						c1.721,0.079,3.052-2.145,2.973-0.424C1453.091,2289.958,1451.711,2287.58,1450.054,2287.58z"/>
				</g>
				<g>
					<path style="fill:#91B3FA;" d="M1470.167,2215.234c-0.486,0-0.978-0.113-1.44-0.354
						c-61.325-31.977-45.552-123.245-44.849-127.116c0.308-1.691,1.939-2.827,3.625-2.51c1.694,0.305,2.819,1.928,2.513,3.622
						c-0.163,0.904-15.643,90.628,41.596,120.473c1.528,0.798,2.12,2.68,1.324,4.206
						C1472.379,2214.625,1471.292,2215.234,1470.167,2215.234z"/>
				</g>
			</g>
			<path style="fill:#FFFFFF;" d="M1496.233,2080.682c-10.516-33.531-63.801-138.577-63.801-138.577l-21.549,13.867l39.445,123.601
				c1.693,5.306,6.622,8.907,12.19,8.907c2.96,0,5.412,2.298,5.604,5.251l6.831,105.31
				C1474.953,2199.041,1506.748,2114.213,1496.233,2080.682z"/>
			<path style="fill:#FFFFFF;" d="M1555.62,2049.547c1.689-4.065,1.884-8.596,0.548-12.79l-32.8-103.027l-20.123-16.078
				l-2.217,16.078l18.219,96.266l-6.44,175.451l34.075-94.226c1.664-4.601,1.449-9.672-0.598-14.116l-2.072-4.5
				c-2.174-4.719-2.276-10.133-0.282-14.93L1555.62,2049.547z"/>
		</g>
		
			<linearGradient id="SVGID_00000049908160022585651460000009687198731995414951_" gradientUnits="userSpaceOnUse" x1="2654.4458" y1="841.8525" x2="3286.7004" y2="1848.7765">
			<stop  offset="0" style="stop-color:#FF928E"/>
			<stop  offset="1" style="stop-color:#FE7062"/>
		</linearGradient>
		
			<circle style="fill:url(#SVGID_00000049908160022585651460000009687198731995414951_);" cx="2862.181" cy="1172.691" r="208.337"/>
		<path style="fill:#FFFFFF;" d="M2982.121,1117.865h-69.227v-59.632c0-13.999-11.348-25.347-25.347-25.347h-50.733
			c-13.999,0-25.347,11.349-25.347,25.347v59.632h-69.227c-13.999,0-25.347,11.348-25.347,25.347v58.956
			c0,13.999,11.348,25.347,25.347,25.347h69.227v59.632c0,13.999,11.349,25.347,25.347,25.347h50.733
			c13.999,0,25.347-11.349,25.347-25.347v-59.632h69.227c13.999,0,25.347-11.348,25.347-25.347v-58.956
			C3007.469,1129.214,2996.12,1117.865,2982.121,1117.865z"/>
	</g>
</g>
</svg>
